<svg xmlns="http://www.w3.org/2000/svg" style="border: 0 !important; clip: rect(0 0 0 0) !important; height: 1px !important; margin: -1px !important; overflow: hidden !important; padding: 0 !important; position: absolute !important; width: 1px !important;" class="root-svg-symbols-element">
    <symbol id="Arrow---Down-2" viewBox="0 0 24 24">
      <path d="M4.24106 7.7459C4.53326 7.44784 4.99051 7.42074 5.31272 7.66461L5.40503 7.7459L12 14.4734L18.595 7.7459C18.8872 7.44784 19.3444 7.42074 19.6666 7.66461L19.7589 7.7459C20.0511 8.04396 20.0777 8.51037 19.8386 8.83904L19.7589 8.93321L12.582 16.2541C12.2898 16.5522 11.8325 16.5793 11.5103 16.3354L11.418 16.2541L4.24106 8.93321C3.91965 8.60534 3.91965 8.07376 4.24106 7.7459Z" fill="#292D32"/>
    </symbol>
    <symbol id="arrow" viewBox="0 0 24 24">
      <path d="M4.24106 7.7459C4.53326 7.44784 4.99051 7.42074 5.31272 7.66461L5.40503 7.7459L12 14.4734L18.595 7.7459C18.8872 7.44784 19.3444 7.42074 19.6666 7.66461L19.7589 7.7459C20.0511 8.04396 20.0777 8.51037 19.8386 8.83904L19.7589 8.93321L12.582 16.2541C12.2898 16.5522 11.8325 16.5793 11.5103 16.3354L11.418 16.2541L4.24106 8.93321C3.91965 8.60534 3.91965 8.07376 4.24106 7.7459Z" fill="#292D32"/>
    </symbol>
    <symbol id="close" viewBox="0 0 12 12">
      <path d="M1 11L11 1M1 1L11 11" stroke="#0A2A3C" stroke-width="2"/>
    </symbol>
    <symbol id="up" viewBox="0 0 13 15">
      <path d="M6.5 2V13.25M6.5 2L2 5.5M6.5 2L11 5.5" stroke="#fff" stroke-width="2" stroke-linecap="square"/>
    </symbol></svg>