<svg xmlns="http://www.w3.org/2000/svg" style="border: 0 !important; clip: rect(0 0 0 0) !important; height: 1px !important; margin: -1px !important; overflow: hidden !important; padding: 0 !important; position: absolute !important; width: 1px !important;" class="root-svg-symbols-element">
    <symbol id="Arrow---Down-2" viewBox="0 0 24 24">
      <path d="M4.24106 7.7459C4.53326 7.44784 4.99051 7.42074 5.31272 7.66461L5.40503 7.7459L12 14.4734L18.595 7.7459C18.8872 7.44784 19.3444 7.42074 19.6666 7.66461L19.7589 7.7459C20.0511 8.04396 20.0777 8.51037 19.8386 8.83904L19.7589 8.93321L12.582 16.2541C12.2898 16.5522 11.8325 16.5793 11.5103 16.3354L11.418 16.2541L4.24106 8.93321C3.91965 8.60534 3.91965 8.07376 4.24106 7.7459Z" fill="#292D32"/>
    </symbol>
    <symbol id="arrow" viewBox="0 0 24 24">
      <path d="M4.24106 7.7459C4.53326 7.44784 4.99051 7.42074 5.31272 7.66461L5.40503 7.7459L12 14.4734L18.595 7.7459C18.8872 7.44784 19.3444 7.42074 19.6666 7.66461L19.7589 7.7459C20.0511 8.04396 20.0777 8.51037 19.8386 8.83904L19.7589 8.93321L12.582 16.2541C12.2898 16.5522 11.8325 16.5793 11.5103 16.3354L11.418 16.2541L4.24106 8.93321C3.91965 8.60534 3.91965 8.07376 4.24106 7.7459Z"/>
    </symbol>
    <symbol id="close" viewBox="0 0 12 12">
      <path d="M1 11L11 1M1 1L11 11"/>
    </symbol>
    <symbol id="empty-wallet" viewBox="0 0 24 24">
      <path d="M18.04 13.55C17.62 13.96 17.38 14.55 17.44 15.18C17.53 16.26 18.52 17.05 19.6 17.05H21.5V18.24C21.5 20.31 19.81 22 17.74 22H6.26C4.19 22 2.5 20.31 2.5 18.24V11.51C2.5 9.44001 4.19 7.75 6.26 7.75H17.74C19.81 7.75 21.5 9.44001 21.5 11.51V12.95H19.48C18.92 12.95 18.41 13.17 18.04 13.55Z" stroke="#398860" stroke-width="1.5" stroke-linecap="round" stroke-linejoin="round"/><path d="M2.5 12.4101V7.8401C2.5 6.6501 3.23 5.59006 4.34 5.17006L12.28 2.17006C13.52 1.70006 14.85 2.62009 14.85 3.95009V7.75008" stroke="#398860" stroke-width="1.5" stroke-linecap="round" stroke-linejoin="round"/><path d="M22.5588 13.9702V16.0302C22.5588 16.5802 22.1188 17.0302 21.5588 17.0502H19.5988C18.5188 17.0502 17.5288 16.2602 17.4388 15.1802C17.3788 14.5502 17.6188 13.9602 18.0388 13.5502C18.4088 13.1702 18.9188 12.9502 19.4788 12.9502H21.5588C22.1188 12.9702 22.5588 13.4202 22.5588 13.9702Z" stroke="#398860" stroke-width="1.5" stroke-linecap="round" stroke-linejoin="round"/><path d="M7 12H14" stroke="#398860" stroke-width="1.5" stroke-linecap="round" stroke-linejoin="round"/>
    </symbol>
    <symbol id="ik" viewBox="0 0 24 24">
      <path d="M18.04 13.55C17.62 13.96 17.38 14.55 17.44 15.18C17.53 16.26 18.52 17.05 19.6 17.05H21.5V18.24C21.5 20.31 19.81 22 17.74 22H6.26C4.19 22 2.5 20.31 2.5 18.24V11.51C2.5 9.44001 4.19 7.75 6.26 7.75H17.74C19.81 7.75 21.5 9.44001 21.5 11.51V12.95H19.48C18.92 12.95 18.41 13.17 18.04 13.55Z" stroke="#398860" stroke-width="1.5" stroke-linecap="round" stroke-linejoin="round"/><path d="M2.5 12.4101V7.8401C2.5 6.6501 3.23 5.59006 4.34 5.17006L12.28 2.17006C13.52 1.70006 14.85 2.62009 14.85 3.95009V7.75008" stroke="#398860" stroke-width="1.5" stroke-linecap="round" stroke-linejoin="round"/><path d="M22.5588 13.9702V16.0302C22.5588 16.5802 22.1188 17.0302 21.5588 17.0502H19.5988C18.5188 17.0502 17.5288 16.2602 17.4388 15.1802C17.3788 14.5502 17.6188 13.9602 18.0388 13.5502C18.4088 13.1702 18.9188 12.9502 19.4788 12.9502H21.5588C22.1188 12.9702 22.5588 13.4202 22.5588 13.9702Z" stroke="#398860" stroke-width="1.5" stroke-linecap="round" stroke-linejoin="round"/><path d="M7 12H14" stroke="#398860" stroke-width="1.5" stroke-linecap="round" stroke-linejoin="round"/>
    </symbol>
    <symbol id="up" viewBox="0 0 13 15">
      <path d="M6.5 2V13.25M6.5 2L2 5.5M6.5 2L11 5.5" stroke="#fff" stroke-width="2" stroke-linecap="square"/>
    </symbol>
    <symbol id="watsup" viewBox="0 0 23 23">
      <path fill-rule="evenodd" clip-rule="evenodd" d="M15.8004 12.9745C15.5757 12.7937 15.3126 12.6665 15.0312 12.6025C14.7497 12.5385 14.4573 12.5394 14.1762 12.6051C13.7539 12.7801 13.4811 13.4411 13.2082 13.7716C13.1507 13.8508 13.0661 13.9064 12.9704 13.9278C12.8747 13.9493 12.7745 13.9352 12.6885 13.8882C11.1424 13.2842 9.84652 12.1766 9.01125 10.7453C8.94 10.656 8.90628 10.5425 8.91719 10.4289C8.9281 10.3153 8.98278 10.2103 9.06972 10.1361C9.37405 9.83561 9.5975 9.46339 9.7194 9.05391C9.74647 8.60224 9.64273 8.15234 9.42055 7.75785C9.24878 7.20479 8.9219 6.71233 8.47851 6.33866C8.24982 6.23607 7.99625 6.20167 7.7484 6.23961C7.50055 6.27756 7.269 6.38623 7.08168 6.55251C6.7565 6.83236 6.49839 7.1814 6.32636 7.57393C6.15433 7.96646 6.07276 8.39248 6.08767 8.82062C6.08867 9.06104 6.11922 9.30044 6.17862 9.53345C6.32948 10.0933 6.56149 10.6282 6.86729 11.1211C7.08792 11.4988 7.32865 11.8643 7.58844 12.2163C8.43273 13.3724 9.49403 14.3539 10.7134 15.1065C11.3253 15.489 11.9793 15.7999 12.6625 16.0332C13.3721 16.3541 14.1557 16.4772 14.9299 16.3896C15.371 16.323 15.7889 16.1493 16.1469 15.8838C16.5049 15.6182 16.792 15.269 16.9829 14.8668C17.095 14.6238 17.1291 14.3521 17.0803 14.0891C16.9634 13.5512 16.2422 13.2337 15.8004 12.9745Z"/><path d="M0 23L1.6502 16.8696C0.319355 14.4815 -0.103468 11.6948 0.45932 9.02087C1.02211 6.34692 2.53275 3.96509 4.71405 2.31244C6.89535 0.659794 9.60099 -0.152811 12.3345 0.0237414C15.068 0.200294 17.6459 1.35416 19.5953 3.27361C21.5447 5.19305 22.7348 7.74932 22.9472 10.4733C23.1595 13.1974 22.3799 15.9064 20.7514 18.1033C19.1229 20.3003 16.7548 21.8378 14.0815 22.4337C11.4082 23.0296 8.60919 22.644 6.19799 21.3475L0 23ZM6.49684 19.0535L6.88015 19.2803C8.62664 20.3128 10.6665 20.7401 12.6819 20.4956C14.6972 20.251 16.5749 19.3483 18.0222 17.9282C19.4696 16.5081 20.4053 14.6503 20.6836 12.6444C20.9618 10.6384 20.5671 8.59699 19.5607 6.83821C18.5544 5.07943 16.993 3.7021 15.12 2.92085C13.2469 2.1396 11.1674 1.99831 9.2054 2.51901C7.24344 3.03971 5.50927 4.19315 4.27313 5.79958C3.03699 7.406 2.36833 9.37518 2.37135 11.4002C2.3697 13.0793 2.83526 14.726 3.71619 16.1568L3.95658 16.5521L3.03402 19.9737L6.49684 19.0535Z"/>
    </symbol>
    <symbol id="ик" viewBox="0 0 24 24">
      <path d="M18.04 13.55C17.62 13.96 17.38 14.55 17.44 15.18C17.53 16.26 18.52 17.05 19.6 17.05H21.5V18.24C21.5 20.31 19.81 22 17.74 22H6.26C4.19 22 2.5 20.31 2.5 18.24V11.51C2.5 9.44001 4.19 7.75 6.26 7.75H17.74C19.81 7.75 21.5 9.44001 21.5 11.51V12.95H19.48C18.92 12.95 18.41 13.17 18.04 13.55Z" stroke="#398860" stroke-width="1.5" stroke-linecap="round" stroke-linejoin="round"/><path d="M2.5 12.4101V7.8401C2.5 6.6501 3.23 5.59006 4.34 5.17006L12.28 2.17006C13.52 1.70006 14.85 2.62009 14.85 3.95009V7.75008" stroke="#398860" stroke-width="1.5" stroke-linecap="round" stroke-linejoin="round"/><path d="M22.5588 13.9702V16.0302C22.5588 16.5802 22.1188 17.0302 21.5588 17.0502H19.5988C18.5188 17.0502 17.5288 16.2602 17.4388 15.1802C17.3788 14.5502 17.6188 13.9602 18.0388 13.5502C18.4088 13.1702 18.9188 12.9502 19.4788 12.9502H21.5588C22.1188 12.9702 22.5588 13.4202 22.5588 13.9702Z" stroke="#398860" stroke-width="1.5" stroke-linecap="round" stroke-linejoin="round"/><path d="M7 12H14" stroke="#398860" stroke-width="1.5" stroke-linecap="round" stroke-linejoin="round"/>
    </symbol>
    <symbol id="обычная" viewBox="0 0 52 52">
      <rect x=".5" y=".5" width="51" height="51" rx="25.5" fill="#EFF6F3" stroke="#398860"/><path d="M14.5 36.5802L16.1502 30.4498C14.8194 28.0617 14.3965 25.275 14.9593 22.6011C15.5221 19.9271 17.0328 17.5453 19.2141 15.8926C21.3954 14.24 24.101 13.4274 26.8345 13.6039C29.568 13.7805 32.1459 14.9344 34.0953 16.8538C36.0447 18.7733 37.2348 21.3295 37.4472 24.0535C37.6595 26.7776 36.8799 29.4866 35.2514 31.6835C33.6229 33.8805 31.2548 35.418 28.5815 36.0139C25.9082 36.6098 23.1092 36.2242 20.698 34.9277L14.5 36.5802ZM20.9968 32.6337L21.3802 32.8605C23.1266 33.893 25.1665 34.3203 27.1819 34.0758C29.1972 33.8312 31.0749 32.9285 32.5222 31.5084C33.9696 30.0883 34.9053 28.2305 35.1836 26.2246C35.4618 24.2186 35.0671 22.1772 34.0607 20.4184C33.0544 18.6596 31.493 17.2823 29.62 16.501C27.7469 15.7198 25.6674 15.5785 23.7054 16.0992C21.7434 16.6199 20.0093 17.7734 18.7731 19.3798C17.537 20.9862 16.8683 22.9554 16.8713 24.9804C16.8697 26.6595 17.3353 28.3062 18.2162 29.737L18.4566 30.1323L17.534 33.5539L20.9968 32.6337Z" fill="#398860"/><path fill-rule="evenodd" clip-rule="evenodd" d="M30.3004 26.5546C30.0757 26.3738 29.8126 26.2466 29.5312 26.1825C29.2497 26.1185 28.9573 26.1194 28.6762 26.1852C28.2539 26.3602 27.9811 27.0212 27.7082 27.3517C27.6507 27.4309 27.5661 27.4864 27.4704 27.5079C27.3747 27.5294 27.2745 27.5153 27.1885 27.4683C25.6424 26.8643 24.3465 25.7567 23.5112 24.3253C23.44 24.236 23.4063 24.1226 23.4172 24.009C23.4281 23.8954 23.4828 23.7904 23.5697 23.7162C23.8741 23.4157 24.0975 23.0435 24.2194 22.634C24.2465 22.1823 24.1427 21.7324 23.9205 21.3379C23.7488 20.7849 23.4219 20.2924 22.9785 19.9187C22.7498 19.8161 22.4963 19.7817 22.2484 19.8197C22.0005 19.8576 21.769 19.9663 21.5817 20.1326C21.2565 20.4124 20.9984 20.7615 20.8264 21.154C20.6543 21.5465 20.5728 21.9726 20.5877 22.4007C20.5887 22.6411 20.6192 22.8805 20.6786 23.1135C20.8295 23.6734 21.0615 24.2082 21.3673 24.7012C21.5879 25.0788 21.8286 25.4444 22.0884 25.7964C22.9327 26.9525 23.994 27.934 25.2134 28.6866C25.8253 29.069 26.4793 29.38 27.1625 29.6133C27.8721 29.9342 28.6557 30.0573 29.4299 29.9697C29.871 29.9031 30.2889 29.7294 30.6469 29.4638C31.0049 29.1983 31.292 28.849 31.4829 28.4468C31.595 28.2039 31.6291 27.9322 31.5803 27.6692C31.4634 27.1313 30.7422 26.8138 30.3004 26.5546Z" fill="#398860"/>
    </symbol></svg>