<svg width="52" height="52" viewBox="0 0 52 52" fill="none" xmlns="http://www.w3.org/2000/svg"><rect x=".5" y=".5" width="51" height="51" rx="25.5" fill="#EFF6F3" stroke="#398860"/><path d="M14.5 36.5802L16.1502 30.4498C14.8194 28.0617 14.3965 25.275 14.9593 22.6011C15.5221 19.9271 17.0328 17.5453 19.2141 15.8926C21.3954 14.24 24.101 13.4274 26.8345 13.6039C29.568 13.7805 32.1459 14.9344 34.0953 16.8538C36.0447 18.7733 37.2348 21.3295 37.4472 24.0535C37.6595 26.7776 36.8799 29.4866 35.2514 31.6835C33.6229 33.8805 31.2548 35.418 28.5815 36.0139C25.9082 36.6098 23.1092 36.2242 20.698 34.9277L14.5 36.5802ZM20.9968 32.6337L21.3802 32.8605C23.1266 33.893 25.1665 34.3203 27.1819 34.0758C29.1972 33.8312 31.0749 32.9285 32.5222 31.5084C33.9696 30.0883 34.9053 28.2305 35.1836 26.2246C35.4618 24.2186 35.0671 22.1772 34.0607 20.4184C33.0544 18.6596 31.493 17.2823 29.62 16.501C27.7469 15.7198 25.6674 15.5785 23.7054 16.0992C21.7434 16.6199 20.0093 17.7734 18.7731 19.3798C17.537 20.9862 16.8683 22.9554 16.8713 24.9804C16.8697 26.6595 17.3353 28.3062 18.2162 29.737L18.4566 30.1323L17.534 33.5539L20.9968 32.6337Z" fill="#398860"/><path fill-rule="evenodd" clip-rule="evenodd" d="M30.3004 26.5546C30.0757 26.3738 29.8126 26.2466 29.5312 26.1825C29.2497 26.1185 28.9573 26.1194 28.6762 26.1852C28.2539 26.3602 27.9811 27.0212 27.7082 27.3517C27.6507 27.4309 27.5661 27.4864 27.4704 27.5079C27.3747 27.5294 27.2745 27.5153 27.1885 27.4683C25.6424 26.8643 24.3465 25.7567 23.5112 24.3253C23.44 24.236 23.4063 24.1226 23.4172 24.009C23.4281 23.8954 23.4828 23.7904 23.5697 23.7162C23.8741 23.4157 24.0975 23.0435 24.2194 22.634C24.2465 22.1823 24.1427 21.7324 23.9205 21.3379C23.7488 20.7849 23.4219 20.2924 22.9785 19.9187C22.7498 19.8161 22.4963 19.7817 22.2484 19.8197C22.0005 19.8576 21.769 19.9663 21.5817 20.1326C21.2565 20.4124 20.9984 20.7615 20.8264 21.154C20.6543 21.5465 20.5728 21.9726 20.5877 22.4007C20.5887 22.6411 20.6192 22.8805 20.6786 23.1135C20.8295 23.6734 21.0615 24.2082 21.3673 24.7012C21.5879 25.0788 21.8286 25.4444 22.0884 25.7964C22.9327 26.9525 23.994 27.934 25.2134 28.6866C25.8253 29.069 26.4793 29.38 27.1625 29.6133C27.8721 29.9342 28.6557 30.0573 29.4299 29.9697C29.871 29.9031 30.2889 29.7294 30.6469 29.4638C31.0049 29.1983 31.292 28.849 31.4829 28.4468C31.595 28.2039 31.6291 27.9322 31.5803 27.6692C31.4634 27.1313 30.7422 26.8138 30.3004 26.5546Z" fill="#398860"/></svg>