<svg width="26" height="26" viewBox="0 0 26 26" fill="none" xmlns="http://www.w3.org/2000/svg">
<path d="M9.92031 22.5024V19.1801C9.92029 18.335 10.6092 17.6484 11.4628 17.6427H14.5893C15.447 17.6427 16.1422 18.331 16.1422 19.1801V19.1801V22.5127C16.142 23.2302 16.7204 23.8165 17.445 23.8334H19.5293C21.6072 23.8334 23.2917 22.1658 23.2917 20.1087V20.1087V10.6577C23.2806 9.84842 22.8968 9.08848 22.2495 8.59414L15.1209 2.9091C13.872 1.91922 12.0967 1.91922 10.8479 2.9091L3.75052 8.60446C3.10078 9.09679 2.71633 9.85799 2.70833 10.668V20.1087C2.70833 22.1658 4.39278 23.8334 6.47065 23.8334H8.55504C9.29755 23.8334 9.89947 23.2375 9.89947 22.5024V22.5024" stroke="#398860" stroke-width="1.5" stroke-linecap="round" stroke-linejoin="round"/>
</svg>
